<mxfile host="app.diagrams.net" modified="2023-09-26T16:33:19.681Z" agent="Mozilla/5.0 (Windows NT 10.0; Win64; x64) AppleWebKit/537.36 (KHTML, like Gecko) Chrome/114.0.0.0 YaBrowser/23.7.5.734 Yowser/2.5 Safari/537.36" etag="4NBVq-fRe4c1L1mOseAV" version="21.7.5" type="device">
  <diagram id="R2lEEEUBdFMjLlhIrx00" name="Page-1">
    <mxGraphModel dx="1336" dy="767" grid="1" gridSize="10" guides="1" tooltips="1" connect="1" arrows="1" fold="1" page="1" pageScale="1" pageWidth="850" pageHeight="1100" math="0" shadow="0" extFonts="Permanent Marker^https://fonts.googleapis.com/css?family=Permanent+Marker">
      <root>
        <mxCell id="0" />
        <mxCell id="1" parent="0" />
        <mxCell id="nrqa1FXBkWVdk2U6ALfu-1" value="Message" style="swimlane;childLayout=stackLayout;horizontal=1;startSize=50;horizontalStack=0;rounded=1;fontSize=14;fontStyle=0;strokeWidth=2;resizeParent=0;resizeLast=1;shadow=0;dashed=0;align=center;arcSize=4;whiteSpace=wrap;html=1;" parent="1" vertex="1">
          <mxGeometry x="10" y="360" width="160" height="110" as="geometry">
            <mxRectangle x="265" y="140" width="100" height="50" as="alternateBounds" />
          </mxGeometry>
        </mxCell>
        <mxCell id="nrqa1FXBkWVdk2U6ALfu-2" value="+ content&lt;br&gt;+ datetime&lt;br&gt;+ sender" style="align=left;strokeColor=none;fillColor=none;spacingLeft=4;fontSize=12;verticalAlign=top;resizable=0;rotatable=0;part=1;html=1;" parent="nrqa1FXBkWVdk2U6ALfu-1" vertex="1">
          <mxGeometry y="50" width="160" height="60" as="geometry" />
        </mxCell>
        <mxCell id="nrqa1FXBkWVdk2U6ALfu-3" value="Chat" style="swimlane;childLayout=stackLayout;horizontal=1;startSize=50;horizontalStack=0;rounded=1;fontSize=14;fontStyle=0;strokeWidth=2;resizeParent=0;resizeLast=1;shadow=0;dashed=0;align=center;arcSize=4;whiteSpace=wrap;html=1;" parent="1" vertex="1">
          <mxGeometry x="290" y="270" width="160" height="90" as="geometry" />
        </mxCell>
        <mxCell id="nrqa1FXBkWVdk2U6ALfu-78" value="+ name&lt;br&gt;&lt;div style=&quot;&quot;&gt;&lt;span style=&quot;background-color: initial;&quot;&gt;+ image&lt;/span&gt;&lt;/div&gt;" style="text;html=1;align=left;verticalAlign=middle;resizable=0;points=[];autosize=1;strokeColor=none;fillColor=none;" parent="nrqa1FXBkWVdk2U6ALfu-3" vertex="1">
          <mxGeometry y="50" width="160" height="40" as="geometry" />
        </mxCell>
        <mxCell id="nrqa1FXBkWVdk2U6ALfu-5" value="Meeting" style="swimlane;childLayout=stackLayout;horizontal=1;startSize=50;horizontalStack=0;rounded=1;fontSize=14;fontStyle=0;strokeWidth=2;resizeParent=0;resizeLast=1;shadow=0;dashed=0;align=center;arcSize=4;whiteSpace=wrap;html=1;" parent="1" vertex="1">
          <mxGeometry x="220" y="680" width="160" height="110" as="geometry" />
        </mxCell>
        <mxCell id="nrqa1FXBkWVdk2U6ALfu-6" value="+ name&lt;br&gt;+ datetime&lt;br&gt;+ active" style="align=left;strokeColor=none;fillColor=none;spacingLeft=4;fontSize=12;verticalAlign=top;resizable=0;rotatable=0;part=1;html=1;" parent="nrqa1FXBkWVdk2U6ALfu-5" vertex="1">
          <mxGeometry y="50" width="160" height="60" as="geometry" />
        </mxCell>
        <mxCell id="nrqa1FXBkWVdk2U6ALfu-76" style="edgeStyle=orthogonalEdgeStyle;rounded=0;orthogonalLoop=1;jettySize=auto;html=1;exitX=0.5;exitY=1;exitDx=0;exitDy=0;" parent="nrqa1FXBkWVdk2U6ALfu-5" source="nrqa1FXBkWVdk2U6ALfu-6" target="nrqa1FXBkWVdk2U6ALfu-6" edge="1">
          <mxGeometry relative="1" as="geometry" />
        </mxCell>
        <mxCell id="nrqa1FXBkWVdk2U6ALfu-7" value="Location" style="swimlane;childLayout=stackLayout;horizontal=1;startSize=50;horizontalStack=0;rounded=1;fontSize=14;fontStyle=0;strokeWidth=2;resizeParent=0;resizeLast=1;shadow=0;dashed=0;align=center;arcSize=4;whiteSpace=wrap;html=1;" parent="1" vertex="1">
          <mxGeometry x="220" y="510" width="160" height="110" as="geometry" />
        </mxCell>
        <mxCell id="nrqa1FXBkWVdk2U6ALfu-8" value="+ country&lt;br&gt;+ city&lt;br&gt;+ address" style="align=left;strokeColor=none;fillColor=none;spacingLeft=4;fontSize=12;verticalAlign=top;resizable=0;rotatable=0;part=1;html=1;" parent="nrqa1FXBkWVdk2U6ALfu-7" vertex="1">
          <mxGeometry y="50" width="160" height="60" as="geometry" />
        </mxCell>
        <mxCell id="nrqa1FXBkWVdk2U6ALfu-9" value="Role" style="swimlane;childLayout=stackLayout;horizontal=1;startSize=50;horizontalStack=0;rounded=1;fontSize=14;fontStyle=0;strokeWidth=2;resizeParent=0;resizeLast=1;shadow=0;dashed=0;align=center;arcSize=4;whiteSpace=wrap;html=1;" parent="1" vertex="1">
          <mxGeometry x="750" y="90" width="160" height="80" as="geometry" />
        </mxCell>
        <mxCell id="nrqa1FXBkWVdk2U6ALfu-10" value="+ name" style="align=left;strokeColor=none;fillColor=none;spacingLeft=4;fontSize=12;verticalAlign=top;resizable=0;rotatable=0;part=1;html=1;" parent="nrqa1FXBkWVdk2U6ALfu-9" vertex="1">
          <mxGeometry y="50" width="160" height="30" as="geometry" />
        </mxCell>
        <mxCell id="nrqa1FXBkWVdk2U6ALfu-11" value="User" style="swimlane;childLayout=stackLayout;horizontal=1;startSize=50;horizontalStack=0;rounded=1;fontSize=14;fontStyle=0;strokeWidth=2;resizeParent=0;resizeLast=1;shadow=0;dashed=0;align=center;arcSize=4;whiteSpace=wrap;html=1;" parent="1" vertex="1">
          <mxGeometry x="750" y="200" width="160" height="110" as="geometry" />
        </mxCell>
        <mxCell id="nrqa1FXBkWVdk2U6ALfu-12" value="+ username&lt;br&gt;+ email&lt;br&gt;+ password" style="align=left;strokeColor=none;fillColor=none;spacingLeft=4;fontSize=12;verticalAlign=top;resizable=0;rotatable=0;part=1;html=1;" parent="nrqa1FXBkWVdk2U6ALfu-11" vertex="1">
          <mxGeometry y="50" width="160" height="60" as="geometry" />
        </mxCell>
        <mxCell id="nrqa1FXBkWVdk2U6ALfu-17" value="Action" style="swimlane;childLayout=stackLayout;horizontal=1;startSize=50;horizontalStack=0;rounded=1;fontSize=14;fontStyle=0;strokeWidth=2;resizeParent=0;resizeLast=1;shadow=0;dashed=0;align=center;arcSize=4;whiteSpace=wrap;html=1;" parent="1" vertex="1">
          <mxGeometry x="930" y="550" width="160" height="90" as="geometry" />
        </mxCell>
        <mxCell id="nrqa1FXBkWVdk2U6ALfu-18" value="+ name&lt;br&gt;+ datetime" style="align=left;strokeColor=none;fillColor=none;spacingLeft=4;fontSize=12;verticalAlign=top;resizable=0;rotatable=0;part=1;html=1;" parent="nrqa1FXBkWVdk2U6ALfu-17" vertex="1">
          <mxGeometry y="50" width="160" height="40" as="geometry" />
        </mxCell>
        <mxCell id="nrqa1FXBkWVdk2U6ALfu-61" style="edgeStyle=orthogonalEdgeStyle;rounded=0;orthogonalLoop=1;jettySize=auto;html=1;exitX=0.5;exitY=1;exitDx=0;exitDy=0;" parent="nrqa1FXBkWVdk2U6ALfu-17" source="nrqa1FXBkWVdk2U6ALfu-18" target="nrqa1FXBkWVdk2U6ALfu-18" edge="1">
          <mxGeometry relative="1" as="geometry" />
        </mxCell>
        <mxCell id="nrqa1FXBkWVdk2U6ALfu-19" value="Client" style="swimlane;childLayout=stackLayout;horizontal=1;startSize=50;horizontalStack=0;rounded=1;fontSize=14;fontStyle=0;strokeWidth=2;resizeParent=0;resizeLast=1;shadow=0;dashed=0;align=center;arcSize=4;whiteSpace=wrap;html=1;" parent="1" vertex="1">
          <mxGeometry x="510" y="400" width="160" height="140" as="geometry" />
        </mxCell>
        <mxCell id="nrqa1FXBkWVdk2U6ALfu-20" value="+ first_name&lt;br&gt;+ last_name&lt;br&gt;+ age&lt;br&gt;+ photo&lt;br&gt;+ banned" style="align=left;strokeColor=none;fillColor=none;spacingLeft=4;fontSize=12;verticalAlign=top;resizable=0;rotatable=0;part=1;html=1;" parent="nrqa1FXBkWVdk2U6ALfu-19" vertex="1">
          <mxGeometry y="50" width="160" height="90" as="geometry" />
        </mxCell>
        <mxCell id="nrqa1FXBkWVdk2U6ALfu-28" value="Complaint" style="swimlane;childLayout=stackLayout;horizontal=1;startSize=50;horizontalStack=0;rounded=1;fontSize=14;fontStyle=0;strokeWidth=2;resizeParent=0;resizeLast=1;shadow=0;dashed=0;align=center;arcSize=4;whiteSpace=wrap;html=1;" parent="1" vertex="1">
          <mxGeometry x="930" y="420" width="160" height="80" as="geometry" />
        </mxCell>
        <mxCell id="nrqa1FXBkWVdk2U6ALfu-29" value="+ content" style="align=left;strokeColor=none;fillColor=none;spacingLeft=4;fontSize=12;verticalAlign=top;resizable=0;rotatable=0;part=1;html=1;" parent="nrqa1FXBkWVdk2U6ALfu-28" vertex="1">
          <mxGeometry y="50" width="160" height="30" as="geometry" />
        </mxCell>
        <mxCell id="nrqa1FXBkWVdk2U6ALfu-33" value="" style="edgeStyle=entityRelationEdgeStyle;fontSize=12;html=1;endArrow=ERoneToMany;startArrow=ERmandOne;rounded=0;exitX=1;exitY=0.5;exitDx=0;exitDy=0;entryX=1;entryY=0.25;entryDx=0;entryDy=0;" parent="1" source="nrqa1FXBkWVdk2U6ALfu-9" target="nrqa1FXBkWVdk2U6ALfu-11" edge="1">
          <mxGeometry width="100" height="100" relative="1" as="geometry">
            <mxPoint x="600" y="230" as="sourcePoint" />
            <mxPoint x="1060" y="170" as="targetPoint" />
          </mxGeometry>
        </mxCell>
        <mxCell id="nrqa1FXBkWVdk2U6ALfu-55" value="Contains" style="edgeLabel;html=1;align=center;verticalAlign=middle;resizable=0;points=[];" parent="nrqa1FXBkWVdk2U6ALfu-33" vertex="1" connectable="0">
          <mxGeometry x="-0.6413" relative="1" as="geometry">
            <mxPoint x="12" y="90" as="offset" />
          </mxGeometry>
        </mxCell>
        <mxCell id="nrqa1FXBkWVdk2U6ALfu-56" value="Included" style="edgeLabel;html=1;align=center;verticalAlign=middle;resizable=0;points=[];" parent="nrqa1FXBkWVdk2U6ALfu-33" vertex="1" connectable="0">
          <mxGeometry x="0.5526" y="2" relative="1" as="geometry">
            <mxPoint x="8" y="-92" as="offset" />
          </mxGeometry>
        </mxCell>
        <mxCell id="nrqa1FXBkWVdk2U6ALfu-62" value="" style="edgeStyle=entityRelationEdgeStyle;fontSize=12;html=1;endArrow=ERoneToMany;startArrow=ERzeroToMany;rounded=0;exitX=1;exitY=0;exitDx=0;exitDy=0;entryX=0;entryY=0.75;entryDx=0;entryDy=0;" parent="1" source="nrqa1FXBkWVdk2U6ALfu-5" target="nrqa1FXBkWVdk2U6ALfu-20" edge="1">
          <mxGeometry width="100" height="100" relative="1" as="geometry">
            <mxPoint x="420" y="670" as="sourcePoint" />
            <mxPoint x="520" y="570" as="targetPoint" />
          </mxGeometry>
        </mxCell>
        <mxCell id="nrqa1FXBkWVdk2U6ALfu-63" value="Contains" style="edgeLabel;html=1;align=center;verticalAlign=middle;resizable=0;points=[];" parent="nrqa1FXBkWVdk2U6ALfu-62" vertex="1" connectable="0">
          <mxGeometry x="0.7637" relative="1" as="geometry">
            <mxPoint x="-10" y="10" as="offset" />
          </mxGeometry>
        </mxCell>
        <mxCell id="nrqa1FXBkWVdk2U6ALfu-64" value="Included" style="edgeLabel;html=1;align=center;verticalAlign=middle;resizable=0;points=[];" parent="nrqa1FXBkWVdk2U6ALfu-62" vertex="1" connectable="0">
          <mxGeometry x="-0.7541" y="-1" relative="1" as="geometry">
            <mxPoint y="-19" as="offset" />
          </mxGeometry>
        </mxCell>
        <mxCell id="nrqa1FXBkWVdk2U6ALfu-65" value="" style="edgeStyle=entityRelationEdgeStyle;fontSize=12;html=1;endArrow=ERoneToMany;startArrow=ERzeroToMany;rounded=0;exitX=1;exitY=0.5;exitDx=0;exitDy=0;entryX=0;entryY=0;entryDx=0;entryDy=0;" parent="1" source="nrqa1FXBkWVdk2U6ALfu-3" target="nrqa1FXBkWVdk2U6ALfu-20" edge="1">
          <mxGeometry width="100" height="100" relative="1" as="geometry">
            <mxPoint x="440" y="295" as="sourcePoint" />
            <mxPoint x="500" y="530" as="targetPoint" />
            <Array as="points">
              <mxPoint x="470" y="320" />
            </Array>
          </mxGeometry>
        </mxCell>
        <mxCell id="nrqa1FXBkWVdk2U6ALfu-66" value="Contains" style="edgeLabel;html=1;align=center;verticalAlign=middle;resizable=0;points=[];" parent="nrqa1FXBkWVdk2U6ALfu-65" vertex="1" connectable="0">
          <mxGeometry x="0.7089" y="-2" relative="1" as="geometry">
            <mxPoint y="-22" as="offset" />
          </mxGeometry>
        </mxCell>
        <mxCell id="nrqa1FXBkWVdk2U6ALfu-67" value="Included" style="edgeLabel;html=1;align=center;verticalAlign=middle;resizable=0;points=[];" parent="nrqa1FXBkWVdk2U6ALfu-65" vertex="1" connectable="0">
          <mxGeometry x="-0.7213" y="2" relative="1" as="geometry">
            <mxPoint x="-1" y="15" as="offset" />
          </mxGeometry>
        </mxCell>
        <mxCell id="nrqa1FXBkWVdk2U6ALfu-68" value="" style="edgeStyle=entityRelationEdgeStyle;fontSize=12;html=1;endArrow=ERzeroToMany;startArrow=ERmandOne;rounded=0;exitX=0;exitY=0.75;exitDx=0;exitDy=0;entryX=1;entryY=0.25;entryDx=0;entryDy=0;" parent="1" source="nrqa1FXBkWVdk2U6ALfu-3" target="nrqa1FXBkWVdk2U6ALfu-2" edge="1">
          <mxGeometry width="100" height="100" relative="1" as="geometry">
            <mxPoint x="170" y="500" as="sourcePoint" />
            <mxPoint x="270" y="400" as="targetPoint" />
          </mxGeometry>
        </mxCell>
        <mxCell id="nrqa1FXBkWVdk2U6ALfu-69" value="Included" style="edgeLabel;html=1;align=center;verticalAlign=middle;resizable=0;points=[];" parent="nrqa1FXBkWVdk2U6ALfu-68" vertex="1" connectable="0">
          <mxGeometry x="0.6563" y="-1" relative="1" as="geometry">
            <mxPoint x="10" y="-14" as="offset" />
          </mxGeometry>
        </mxCell>
        <mxCell id="nrqa1FXBkWVdk2U6ALfu-70" value="Contains" style="edgeLabel;html=1;align=center;verticalAlign=middle;resizable=0;points=[];" parent="nrqa1FXBkWVdk2U6ALfu-68" vertex="1" connectable="0">
          <mxGeometry x="-0.6858" y="-1" relative="1" as="geometry">
            <mxPoint x="1" y="20" as="offset" />
          </mxGeometry>
        </mxCell>
        <mxCell id="nrqa1FXBkWVdk2U6ALfu-71" value="" style="edgeStyle=entityRelationEdgeStyle;fontSize=12;html=1;endArrow=ERzeroToMany;startArrow=ERzeroToOne;rounded=0;entryX=0;entryY=0.25;entryDx=0;entryDy=0;exitX=1;exitY=0.25;exitDx=0;exitDy=0;" parent="1" source="nrqa1FXBkWVdk2U6ALfu-8" target="nrqa1FXBkWVdk2U6ALfu-20" edge="1">
          <mxGeometry width="100" height="100" relative="1" as="geometry">
            <mxPoint x="70" y="750" as="sourcePoint" />
            <mxPoint x="170" y="650" as="targetPoint" />
          </mxGeometry>
        </mxCell>
        <mxCell id="nrqa1FXBkWVdk2U6ALfu-72" value="Contains" style="edgeLabel;html=1;align=center;verticalAlign=middle;resizable=0;points=[];" parent="nrqa1FXBkWVdk2U6ALfu-71" vertex="1" connectable="0">
          <mxGeometry x="0.6521" y="1" relative="1" as="geometry">
            <mxPoint x="-11" y="16" as="offset" />
          </mxGeometry>
        </mxCell>
        <mxCell id="nrqa1FXBkWVdk2U6ALfu-73" value="" style="fontSize=12;html=1;endArrow=ERzeroToMany;startArrow=ERmandOne;rounded=0;exitX=0;exitY=0.25;exitDx=0;exitDy=0;edgeStyle=elbowEdgeStyle;entryX=0;entryY=0.5;entryDx=0;entryDy=0;" parent="1" source="nrqa1FXBkWVdk2U6ALfu-8" target="nrqa1FXBkWVdk2U6ALfu-6" edge="1">
          <mxGeometry width="100" height="100" relative="1" as="geometry">
            <mxPoint x="160" y="630" as="sourcePoint" />
            <mxPoint x="210" y="790" as="targetPoint" />
            <Array as="points">
              <mxPoint x="180" y="680" />
            </Array>
          </mxGeometry>
        </mxCell>
        <mxCell id="nrqa1FXBkWVdk2U6ALfu-74" value="Contains" style="edgeLabel;html=1;align=center;verticalAlign=middle;resizable=0;points=[];" parent="nrqa1FXBkWVdk2U6ALfu-73" vertex="1" connectable="0">
          <mxGeometry x="0.7255" y="-1" relative="1" as="geometry">
            <mxPoint x="-3" y="-16" as="offset" />
          </mxGeometry>
        </mxCell>
        <mxCell id="nrqa1FXBkWVdk2U6ALfu-75" value="Included" style="edgeLabel;html=1;align=center;verticalAlign=middle;resizable=0;points=[];" parent="nrqa1FXBkWVdk2U6ALfu-73" vertex="1" connectable="0">
          <mxGeometry x="-0.7037" y="-1" relative="1" as="geometry">
            <mxPoint y="15" as="offset" />
          </mxGeometry>
        </mxCell>
        <mxCell id="nrqa1FXBkWVdk2U6ALfu-80" value="Information" style="swimlane;childLayout=stackLayout;horizontal=1;startSize=50;horizontalStack=0;rounded=1;fontSize=14;fontStyle=0;strokeWidth=2;resizeParent=0;resizeLast=1;shadow=0;dashed=0;align=center;arcSize=4;whiteSpace=wrap;html=1;" parent="1" vertex="1">
          <mxGeometry x="520" y="640" width="160" height="120" as="geometry" />
        </mxCell>
        <mxCell id="nrqa1FXBkWVdk2U6ALfu-81" value="+ hobbies&lt;br&gt;+ occupation&lt;br&gt;+ other" style="align=left;strokeColor=none;fillColor=none;spacingLeft=4;fontSize=12;verticalAlign=top;resizable=0;rotatable=0;part=1;html=1;" parent="nrqa1FXBkWVdk2U6ALfu-80" vertex="1">
          <mxGeometry y="50" width="160" height="70" as="geometry" />
        </mxCell>
        <mxCell id="nrqa1FXBkWVdk2U6ALfu-82" style="edgeStyle=orthogonalEdgeStyle;rounded=0;orthogonalLoop=1;jettySize=auto;html=1;exitX=0.5;exitY=1;exitDx=0;exitDy=0;" parent="nrqa1FXBkWVdk2U6ALfu-80" source="nrqa1FXBkWVdk2U6ALfu-81" target="nrqa1FXBkWVdk2U6ALfu-81" edge="1">
          <mxGeometry relative="1" as="geometry" />
        </mxCell>
        <mxCell id="nrqa1FXBkWVdk2U6ALfu-83" value="" style="edgeStyle=orthogonalEdgeStyle;fontSize=12;html=1;endArrow=ERzeroToOne;startArrow=ERmandOne;rounded=0;entryX=1;entryY=0.5;entryDx=0;entryDy=0;" parent="1" edge="1">
          <mxGeometry width="100" height="100" relative="1" as="geometry">
            <mxPoint x="680" y="510" as="sourcePoint" />
            <mxPoint x="680" y="720" as="targetPoint" />
            <Array as="points">
              <mxPoint x="670" y="510" />
              <mxPoint x="720" y="510" />
              <mxPoint x="720" y="720" />
            </Array>
          </mxGeometry>
        </mxCell>
        <mxCell id="nrqa1FXBkWVdk2U6ALfu-84" value="Contains" style="edgeLabel;html=1;align=center;verticalAlign=middle;resizable=0;points=[];" parent="nrqa1FXBkWVdk2U6ALfu-83" vertex="1" connectable="0">
          <mxGeometry x="-0.7854" y="-2" relative="1" as="geometry">
            <mxPoint x="10" y="8" as="offset" />
          </mxGeometry>
        </mxCell>
        <mxCell id="nrqa1FXBkWVdk2U6ALfu-85" value="Included" style="edgeLabel;html=1;align=center;verticalAlign=middle;resizable=0;points=[];" parent="nrqa1FXBkWVdk2U6ALfu-83" vertex="1" connectable="0">
          <mxGeometry x="0.7335" y="1" relative="1" as="geometry">
            <mxPoint y="-10" as="offset" />
          </mxGeometry>
        </mxCell>
        <mxCell id="F_KC9iYM57UXbXRnkltA-1" value="" style="edgeStyle=entityRelationEdgeStyle;fontSize=12;html=1;endArrow=ERzeroToOne;startArrow=ERmandOne;rounded=0;entryX=1;entryY=0.25;entryDx=0;entryDy=0;exitX=0;exitY=0.25;exitDx=0;exitDy=0;" parent="1" source="nrqa1FXBkWVdk2U6ALfu-12" target="nrqa1FXBkWVdk2U6ALfu-20" edge="1">
          <mxGeometry width="100" height="100" relative="1" as="geometry">
            <mxPoint x="620" y="360" as="sourcePoint" />
            <mxPoint x="720" y="260" as="targetPoint" />
          </mxGeometry>
        </mxCell>
        <mxCell id="F_KC9iYM57UXbXRnkltA-2" value="Contains" style="edgeLabel;html=1;align=center;verticalAlign=middle;resizable=0;points=[];" parent="F_KC9iYM57UXbXRnkltA-1" vertex="1" connectable="0">
          <mxGeometry x="0.6503" y="-2" relative="1" as="geometry">
            <mxPoint y="-1" as="offset" />
          </mxGeometry>
        </mxCell>
        <mxCell id="JNVwNPYprlm9ay51b37--1" value="" style="edgeStyle=entityRelationEdgeStyle;fontSize=12;html=1;endArrow=ERzeroToMany;startArrow=ERmandOne;rounded=0;exitX=1;exitY=0.5;exitDx=0;exitDy=0;entryX=0;entryY=0.25;entryDx=0;entryDy=0;" edge="1" parent="1" source="nrqa1FXBkWVdk2U6ALfu-20" target="nrqa1FXBkWVdk2U6ALfu-17">
          <mxGeometry width="100" height="100" relative="1" as="geometry">
            <mxPoint x="770" y="520" as="sourcePoint" />
            <mxPoint x="870" y="420" as="targetPoint" />
          </mxGeometry>
        </mxCell>
        <mxCell id="JNVwNPYprlm9ay51b37--5" value="Contains" style="edgeLabel;html=1;align=center;verticalAlign=middle;resizable=0;points=[];" vertex="1" connectable="0" parent="JNVwNPYprlm9ay51b37--1">
          <mxGeometry x="-0.3879" y="1" relative="1" as="geometry">
            <mxPoint as="offset" />
          </mxGeometry>
        </mxCell>
        <mxCell id="JNVwNPYprlm9ay51b37--6" value="Included" style="edgeLabel;html=1;align=center;verticalAlign=middle;resizable=0;points=[];" vertex="1" connectable="0" parent="JNVwNPYprlm9ay51b37--1">
          <mxGeometry x="0.4881" y="-1" relative="1" as="geometry">
            <mxPoint as="offset" />
          </mxGeometry>
        </mxCell>
        <mxCell id="JNVwNPYprlm9ay51b37--2" value="" style="edgeStyle=entityRelationEdgeStyle;fontSize=12;html=1;endArrow=ERzeroToMany;startArrow=ERmandOne;rounded=0;exitX=0.998;exitY=0.416;exitDx=0;exitDy=0;entryX=0;entryY=0.25;entryDx=0;entryDy=0;exitPerimeter=0;" edge="1" parent="1" source="nrqa1FXBkWVdk2U6ALfu-20" target="nrqa1FXBkWVdk2U6ALfu-28">
          <mxGeometry width="100" height="100" relative="1" as="geometry">
            <mxPoint x="740" y="462" as="sourcePoint" />
            <mxPoint x="1000" y="540" as="targetPoint" />
          </mxGeometry>
        </mxCell>
        <mxCell id="JNVwNPYprlm9ay51b37--3" value="Contains" style="edgeLabel;html=1;align=center;verticalAlign=middle;resizable=0;points=[];" vertex="1" connectable="0" parent="JNVwNPYprlm9ay51b37--2">
          <mxGeometry x="-0.5115" relative="1" as="geometry">
            <mxPoint as="offset" />
          </mxGeometry>
        </mxCell>
        <mxCell id="JNVwNPYprlm9ay51b37--4" value="Included" style="edgeLabel;html=1;align=center;verticalAlign=middle;resizable=0;points=[];" vertex="1" connectable="0" parent="JNVwNPYprlm9ay51b37--2">
          <mxGeometry x="0.5722" y="2" relative="1" as="geometry">
            <mxPoint as="offset" />
          </mxGeometry>
        </mxCell>
      </root>
    </mxGraphModel>
  </diagram>
</mxfile>
